<svg aria-hidden="true" style="position: absolute; width: 0; height: 0; overflow: hidden;" version="1.1" xmlns="http://www.w3.org/2000/svg" xmlns:xlink="http://www.w3.org/1999/xlink">
<defs>
<symbol id="icon-close" viewBox="0 0 32 32">
<path d="M23.733 10.304l-1.504-1.504-5.963 5.963-5.963-5.963-1.504 1.504 5.963 5.963-5.963 5.963 1.504 1.504 5.963-5.963 5.963 5.963 1.504-1.504-5.963-5.963 5.963-5.963z"></path>
</symbol>
<symbol id="icon-menu" viewBox="0 0 32 32">
<path d="M6.4 11.733v-2.133h19.2v2.133h-19.2zM6.4 17.067h19.2v-2.133h-19.2v2.133zM6.4 22.4h19.2v-2.133h-19.2v2.133z"></path>
</symbol>
<symbol id="icon-Vector" viewBox="0 0 34 32">
<path stroke-linejoin="miter" stroke-linecap="butt" stroke-miterlimit="4" stroke-width="2.1333" d="M31.407 3.556v-1.067h-28.681v27.022h28.681v-25.955zM3.793 1.067h26.548c1.563 0 2.726 1.186 2.726 2.489v24.889c0 1.303-1.163 2.489-2.726 2.489h-26.548c-1.563 0-2.726-1.186-2.726-2.489v-24.889c0-1.303 1.163-2.489 2.726-2.489z"></path>
</symbol>
<symbol id="icon-email" viewBox="0 0 32 32">
<path d="M26.667 5.333h-21.333c-1.467 0-2.653 1.2-2.653 2.667l-0.013 16c0 1.467 1.2 2.667 2.667 2.667h21.333c1.467 0 2.667-1.2 2.667-2.667v-16c0-1.467-1.2-2.667-2.667-2.667zM26.133 11l-9.427 5.893c-0.427 0.267-0.987 0.267-1.413 0l-9.427-5.893c-0.333-0.213-0.533-0.573-0.533-0.96 0-0.893 0.973-1.427 1.733-0.96l8.933 5.587 8.933-5.587c0.76-0.467 1.733 0.067 1.733 0.96 0 0.387-0.2 0.747-0.533 0.96z"></path>
</symbol>
<symbol id="icon-send" viewBox="0 0 32 32">
<path fill="#fff" style="fill: var(--color1, #fff)" d="M32 0l-32 18 10.227 3.788 15.773-14.788-11.998 16.186 0.010 0.004-0.012-0.004v8.814l5.735-6.691 7.265 2.691 5-28z"></path>
</symbol>
<symbol id="icon-person" viewBox="0 0 32 32">
<path d="M16 16c2.947 0 5.333-2.387 5.333-5.333s-2.387-5.333-5.333-5.333c-2.947 0-5.333 2.387-5.333 5.333s2.387 5.333 5.333 5.333zM16 18.667c-3.56 0-10.667 1.787-10.667 5.333v1.333c0 0.733 0.6 1.333 1.333 1.333h18.667c0.733 0 1.333-0.6 1.333-1.333v-1.333c0-3.547-7.107-5.333-10.667-5.333z"></path>
</symbol>
<symbol id="icon-phone" viewBox="0 0 32 32">
<path d="M24.882 19.773l-3.268-0.373c-0.785-0.090-1.557 0.18-2.11 0.733l-2.367 2.367c-3.641-1.853-6.626-4.825-8.478-8.478l2.38-2.38c0.553-0.553 0.823-1.325 0.733-2.11l-0.373-3.242c-0.154-1.299-1.248-2.277-2.56-2.277h-2.226c-1.454 0-2.663 1.209-2.573 2.663 0.682 10.987 9.469 19.761 20.443 20.443 1.454 0.090 2.663-1.119 2.663-2.573v-2.226c0.013-1.3-0.965-2.393-2.264-2.547z"></path>
</symbol>
<symbol id="icon-4aika" viewBox="0 0 36 32">
<path stroke-linejoin="miter" stroke-linecap="butt" stroke-miterlimit="4" stroke-width="0.4923" d="M3.667 15.23l-0.213-0.203-3.204 3.035 11.287 10.768 23.713-22.622-3.183-3.036-20.531 19.567-7.87-7.508z"></path>
</symbol>
<symbol id="icon-x" viewBox="0 0 32 32">
<path d="M32 3.223l-3.223-3.223-12.777 12.777-12.777-12.777-3.223 3.223 12.777 12.777-12.777 12.777 3.223 3.223 12.777-12.777 12.777 12.777 3.223-3.223-12.777-12.777 12.777-12.777z"></path>
</symbol>
<symbol id="icon-antena" viewBox="0 0 32 32">
<path fill="#212121" style="fill: var(--color2, #212121)" d="M30.773 22.098l-8.443-8.505 0.937-4.616c0.225 0.090 0.485 0.144 0.758 0.146h0.007c0.008 0 0.017 0 0.026 0 1.192 0 2.159-0.967 2.159-2.159s-0.967-2.159-2.159-2.159c-1.192 0-2.159 0.967-2.159 2.159 0 0.259 0.046 0.508 0.13 0.739l-0.005-0.015-4.96 0.606-8.091-8.133c-0.096-0.098-0.229-0.159-0.376-0.16h-0c-0.14 0.001-0.274 0.057-0.373 0.155l-1.512 1.504c-0.096 0.097-0.156 0.23-0.156 0.377s0.060 0.281 0.156 0.377v0l0.814 0.825c-1.143 2.062-1.816 4.522-1.816 7.139 0 4.106 1.656 7.824 4.336 10.525l-0.001-0.001c0.043 0.041 0.092 0.074 0.146 0.097-0.032 0.164-0.051 0.353-0.052 0.546v6.188h-6.4c-1.472 0.001-2.666 1.194-2.667 2.666v1.067c0 0.295 0.239 0.534 0.534 0.534h24.534c0.294 0 0.533-0.239 0.533-0.534v-1.067c-0.002-1.472-1.195-2.665-2.666-2.666h-6.4v-2.742c1.003 0.21 2.024 0.317 3.049 0.32 2.58-0.003 5.005-0.663 7.117-1.822l-0.077 0.039 0.818 0.823c0.099 0.101 0.235 0.159 0.376 0.16 0.14-0.001 0.274-0.057 0.373-0.155l1.512-1.504c0.096-0.097 0.156-0.23 0.156-0.377s-0.060-0.281-0.156-0.377v0zM23.28 6.233c0.193-0.192 0.459-0.31 0.752-0.31 0.589 0 1.067 0.478 1.067 1.067s-0.477 1.066-1.067 1.066c-0 0-0 0-0 0h-0.004c-0.587-0.003-1.061-0.479-1.061-1.066 0-0.295 0.12-0.563 0.314-0.756l0-0h-0.002zM22.024 9.737l-0.598 2.946-1.175-1.183 1.774-1.763zM21.419 8.835l-1.92 1.909-1.486-1.493 3.406-0.416zM24.004 28.8c0.884 0 1.6 0.716 1.6 1.6v0 0.534h-23.466v-0.534c0-0.884 0.716-1.6 1.6-1.6v0h20.267zM16.538 26.666v1.067h-5.334v-1.067h5.334zM11.204 25.6v-4.053c0-1.294 1.196-2.346 2.667-2.346s2.667 1.053 2.667 2.346v4.053h-5.334zM17.604 23.904v-2.357c0-1.882-1.675-3.413-3.733-3.413-0.017-0-0.038-0-0.058-0-1.353 0-2.54 0.707-3.213 1.771l-0.009 0.016c-2.36-2.482-3.812-5.846-3.812-9.55 0-2.314 0.567-4.496 1.569-6.414l-0.036 0.077 18.602 18.709c-1.823 0.947-3.979 1.502-6.266 1.502-1.079 0-2.128-0.124-3.136-0.357l0.093 0.018zM28.893 23.22l-21.057-21.181 0.754-0.752 7.935 7.98c0.004 0 0.006 0.007 0.010 0.010l13.114 13.191-0.757 0.752z"></path>
<path fill="#2196f3" style="fill: var(--color3, #2196f3)" d="M13.876 20.266h-0.005c-0.001 0-0.002 0-0.002 0-0.884 0-1.6 0.716-1.6 1.6s0.715 1.599 1.597 1.6h0.005c0.001 0 0.001 0 0.002 0 0.884 0 1.6-0.716 1.6-1.6s-0.715-1.599-1.598-1.6h-0zM14.249 22.245c-0.096 0.096-0.229 0.155-0.376 0.155-0.295 0-0.534-0.239-0.534-0.534s0.238-0.533 0.532-0.533h0c0.293 0.001 0.531 0.239 0.531 0.533 0 0.148-0.060 0.282-0.157 0.378l-0 0h0.005z"></path>
</symbol>
<symbol id="icon-astronaut-1" viewBox="0 0 32 32">
<path fill="#2196f3" style="fill: var(--color3, #2196f3)" d="M31.974 4.524c-0.064-0.191-0.227-0.332-0.427-0.362l-0.003-0-1.911-0.278-0.855-1.731c-0.179-0.365-0.777-0.365-0.956 0l-0.855 1.731-1.911 0.278c-0.26 0.039-0.457 0.26-0.457 0.528 0 0.15 0.062 0.285 0.161 0.382l1.383 1.348-0.326 1.903c-0.034 0.2 0.048 0.402 0.212 0.522 0.166 0.12 0.383 0.135 0.562 0.040l1.709-0.899 1.709 0.899c0.072 0.038 0.157 0.061 0.247 0.061 0.295 0 0.534-0.239 0.534-0.534 0-0.031-0.003-0.062-0.008-0.092l0 0.003-0.326-1.903 1.383-1.348c0.099-0.097 0.161-0.233 0.161-0.382 0-0.059-0.009-0.115-0.027-0.168l0.001 0.004zM29.511 5.851c-0.126 0.122-0.183 0.299-0.153 0.472l0.191 1.114-1-0.526c-0.072-0.039-0.158-0.062-0.249-0.062s-0.177 0.023-0.252 0.063l0.003-0.001-1 0.526 0.191-1.114c0.005-0.027 0.008-0.059 0.008-0.091 0-0.149-0.061-0.285-0.16-0.381l-0-0-0.811-0.79 1.119-0.162c0.174-0.025 0.324-0.134 0.402-0.292l0.5-1.013 0.5 1.013c0.078 0.158 0.228 0.267 0.402 0.292l1.119 0.162-0.809 0.79zM26.134 20.522h-1.067v1.067h1.067v-1.067zM26.134 22.656h-1.067v1.066h1.067v-1.066zM27.2 21.589h-1.067v1.067h1.067v-1.067zM25.067 21.589h-1.067v1.067h1.067v-1.067zM22.4 26.389h-1.067v1.067h1.067v-1.067zM22.4 28.523h-1.067v1.067h1.067v-1.067zM23.467 27.456h-1.067v1.067h1.067v-1.067zM21.334 27.456h-1.067v1.067h1.067v-1.067zM16 24.256h-1.066v1.067h1.066v-1.067zM16 26.389h-1.066v1.067h1.066v-1.067zM17.067 25.322h-1.067v1.067h1.067v-1.067zM14.934 25.322h-1.067v1.067h1.067v-1.067zM5.867 6.122h-1.066v1.066h1.066v-1.066zM5.867 8.256h-1.066v1.066h1.066v-1.066zM6.933 7.189h-1.067v1.067h1.066v-1.067zM4.8 7.189h-1.067v1.067h1.067v-1.067z"></path>
<path fill="#212121" style="fill: var(--color2, #212121)" d="M24.715 14.16c-0.28-0.376-0.699-0.636-1.179-0.703l-0.009-0.001c-0.076-0.012-0.164-0.018-0.254-0.018-0.411 0-0.789 0.139-1.090 0.373l0.004-0.003-1.253 0.96-1.898 1.417-1.358-0.541c2.421-1.086 4.113-3.508 4.113-6.32 0-3.823-3.122-6.934-6.961-6.934s-6.961 3.11-6.961 6.934c0 1.386 0.415 2.674 1.12 3.759l-2.768-0.024c-0.009 0-0.016 0.005-0.023 0.005-0.057 0.003-0.11 0.014-0.159 0.033l0.004-0.001c-0.013 0.005-0.026 0.007-0.038 0.013-0.006 0.003-0.013 0.003-0.019 0.006l-3.233 1.596c-0 0-0.001 0-0.001 0.001l-1.893 0.91c-0.024 0.011-0.045 0.023-0.065 0.036l0.001-0.001c-0.482 0.324-0.795 0.867-0.795 1.483 0 0.297 0.073 0.577 0.201 0.823l-0.005-0.010c0.22 0.424 0.592 0.742 1.043 0.885l0.013 0.003c0.161 0.053 0.345 0.083 0.537 0.083 0.308 0 0.598-0.078 0.851-0.216l-0.009 0.005 1.388-0.738 2.264-1.169 1.357-0.008-5.442 5.415c0 0.001-0.001 0.001-0.001 0.001l-1.339 1.333c-0.303 0.299-0.491 0.714-0.491 1.173 0 0.002 0 0.003 0 0.005v-0c0.002 0.919 0.748 1.664 1.667 1.664 0.001 0 0.002 0 0.002 0h-0c0.428 0 0.854-0.162 1.18-0.485l1.314-1.309 1.741-1.3 0.901 0.897-3.102 3.088c-0.303 0.299-0.491 0.714-0.491 1.173 0 0.001 0 0.003 0 0.004v-0c0 0.445 0.174 0.864 0.49 1.179 0.302 0.3 0.717 0.485 1.176 0.485 0.001 0 0.002 0 0.003 0h-0c0.427 0 0.855-0.162 1.18-0.485l4.488-4.472c0.007-0.006 0.016-0.009 0.022-0.016l5.166-5.658 3.471 0.494c0.025 0.004 0.050 0.006 0.075 0.006 0.064 0 0.127-0.016 0.187-0.038 0.017-0.006 0.032-0.015 0.049-0.023 0.019-0.010 0.039-0.015 0.058-0.027l3.213-2.133c0.012-0.008 0.018-0.021 0.029-0.030 0.013-0.010 0.029-0.014 0.041-0.026l1.271-1.191c0.348-0.326 0.564-0.787 0.564-1.3 0-0.4-0.132-0.769-0.355-1.066l0.003 0.005zM2.13 17.77c-0.098 0.054-0.215 0.086-0.34 0.086-0.078 0-0.153-0.013-0.224-0.036l0.005 0.001c-0.294-0.093-0.504-0.364-0.504-0.683 0-0.235 0.114-0.444 0.289-0.575l0.002-0.001 1.314-0.632 0.316 0.924 0.133 0.389-0.992 0.527zM5.627 15.942l-1.548 0.8-0.255-0.746-0.184-0.537 2.027-1.001-0.040 1.484zM20.727 9.322c0 0.918-0.219 1.785-0.599 2.56l-4.181-1.899c-0.044-0.575-0.342-1.072-0.782-1.384l-0.006-0.004 1.464-4.861c2.377 0.757 4.104 2.975 4.104 5.588zM8.938 9.322c0-3.235 2.644-5.867 5.894-5.867 0.253 0 0.5 0.022 0.745 0.053l-1.432 4.753c-0.019 0-0.037-0.006-0.057-0.006-0 0-0.001 0-0.001 0-1.032 0-1.869 0.835-1.872 1.867v0c0.003 1.031 0.84 1.867 1.872 1.867 0 0 0 0 0.001 0h-0c0.695 0 1.295-0.383 1.618-0.944l3.863 1.755c-1.075 1.447-2.795 2.39-4.737 2.39-3.25 0-5.894-2.632-5.894-5.867zM14.895 10.122c0 0.441-0.362 0.8-0.806 0.8-0 0-0.001 0-0.001 0-0.443 0-0.802-0.358-0.804-0.8v-0c0-0.441 0.361-0.8 0.806-0.8s0.806 0.359 0.806 0.8zM2.464 25.146c-0.11 0.109-0.261 0.176-0.428 0.176s-0.317-0.067-0.427-0.175l0 0c-0.109-0.108-0.176-0.257-0.176-0.422s0.067-0.314 0.176-0.422l0-0 0.962-0.959 0.852 0.848-0.959 0.954zM5.678 28.88c-0.11 0.109-0.261 0.176-0.428 0.176s-0.317-0.067-0.427-0.175l0 0c-0.109-0.108-0.176-0.257-0.176-0.422s0.067-0.314 0.176-0.422l0-0 0.963-0.959 0.852 0.848-0.96 0.955zM9.16 25.411l-0.001 0.001-1.765 1.76-0.852-0.848 1.765-1.757c0.040-0.040 0.065-0.088 0.090-0.136 0.007-0.014 0.020-0.026 0.026-0.040 0.016-0.041 0.019-0.085 0.026-0.128 0.003-0.025 0.014-0.048 0.014-0.073 0-0.035-0.013-0.070-0.020-0.105-0.006-0.032-0.006-0.064-0.019-0.096-0.025-0.053-0.055-0.098-0.092-0.138l0 0c-0.010-0.012-0.014-0.026-0.025-0.038h-0.001s0-0.001-0.001-0.002l-1.607-1.6c-0.017-0.017-0.039-0.024-0.058-0.038-0.025-0.021-0.054-0.040-0.084-0.056l-0.003-0.001c-0.026-0.012-0.058-0.023-0.090-0.031l-0.003-0.001c-0.030-0.009-0.065-0.017-0.101-0.020l-0.002-0c-0.007-0-0.015-0-0.023-0-0.026 0-0.051 0.002-0.075 0.005l0.003-0c-0.036 0.005-0.069 0.009-0.104 0.021s-0.064 0.027-0.094 0.045c-0.020 0.011-0.043 0.015-0.061 0.029l-1.774 1.324-0.901-0.897 2.399-2.386 4.36 4.289-0.928 0.919zM15.979 18.394c-0.016-0.002-0.030 0.004-0.046 0.003-0.008-0-0.017-0.001-0.027-0.001-0.031 0-0.062 0.003-0.092 0.008l0.003-0c-0.070 0.011-0.132 0.035-0.187 0.070l0.002-0.001c-0.030 0.018-0.057 0.037-0.083 0.061-0.013 0.011-0.028 0.016-0.040 0.029l-4.698 5.146-4.328-4.256 2.833-2.818c0.096-0.097 0.156-0.23 0.156-0.377 0-0.295-0.239-0.534-0.534-0.534-0.001 0-0.001 0-0.002 0h0l-2.219 0.013 0.028-1.607 3.104 0.027c1.264 1.297 3.027 2.101 4.978 2.101 0.001 0 0.002 0 0.003 0h-0c0.438 0 0.864-0.046 1.28-0.122 0.040 0.032 0.080 0.064 0.129 0.085l2.41 0.96 0.152 0.758 0.178 0.886-3.003-0.427zM20.020 18.572l-0.313-1.558 1.446-1.080 0.946 1.257-2.080 1.381zM23.773 15.741l-0.837 0.785-0.931-1.236 0.831-0.637c0.155-0.119 0.351-0.168 0.543-0.143 0.193 0.027 0.364 0.128 0.48 0.284 0.088 0.117 0.141 0.265 0.141 0.426 0 0.206-0.087 0.391-0.226 0.521l-0 0z"></path>
<path fill="#212121" style="fill: var(--color2, #212121)" d="M13.602 18.544l-2.143-2.134c-0.096-0.096-0.229-0.155-0.376-0.155s-0.28 0.059-0.376 0.155l-2.143 2.133c-0.097 0.097-0.156 0.23-0.156 0.378s0.060 0.281 0.156 0.378l-0-0 2.142 2.134c0.096 0.096 0.229 0.156 0.376 0.156s0.28-0.059 0.376-0.156v0l2.143-2.134c0.097-0.097 0.157-0.23 0.157-0.378s-0.060-0.281-0.157-0.378l-0-0zM11.083 20.303l-1.387-1.381 1.386-1.381 1.387 1.381-1.387 1.381zM17.164 5.071l-0.258 1.036c0.071 0.018 1.738 0.452 1.738 2.149h1.067c0-2.017-1.666-2.965-2.547-3.184zM19.711 9.322h-1.067v1.066h1.067v-1.066z"></path>
</symbol>
<symbol id="icon-clock" viewBox="0 0 32 32">
<path fill="#212121" style="fill: var(--color2, #212121)" d="M31.296 15.301c-0.001-8.452-6.855-15.303-15.308-15.301s-15.303 6.855-15.301 15.308c0.002 6.788 4.422 12.543 10.541 14.545l0.108 0.031c0.061 0.019 0.123 0.029 0.187 0.029 0.12 0 0.238-0.032 0.342-0.094 0.135-0.080 0.236-0.207 0.283-0.357l3.865-12.25c1.054-0.004 1.906-0.859 1.906-1.913 0-1.056-0.856-1.913-1.913-1.913-0.303 0-0.59 0.071-0.845 0.196l0.011-0.005-5.106-5.107c-0.114-0.11-0.271-0.179-0.443-0.179-0.352 0-0.638 0.286-0.638 0.638 0 0.172 0.068 0.328 0.179 0.443l-0-0 5.103 5.109c-0.121 0.241-0.191 0.525-0.191 0.826 0 0.602 0.283 1.137 0.723 1.48l0.004 0.003-3.682 11.673c-7.278-2.681-11.004-10.754-8.324-18.032s10.754-11.004 18.032-8.323c7.278 2.681 11.004 10.754 8.323 18.032-1.345 3.581-4.003 6.406-7.374 7.938l-0.088 0.036-0.398-1.874c-0.063-0.291-0.318-0.506-0.624-0.506-0.164 0-0.313 0.062-0.426 0.163l0.001-0.001-3.837 3.426c-0.132 0.117-0.214 0.287-0.214 0.477 0 0.283 0.185 0.524 0.441 0.606l0.005 0.001 4.899 1.563c0.058 0.020 0.126 0.031 0.196 0.031 0.352 0 0.637-0.285 0.637-0.637 0-0.047-0.005-0.093-0.015-0.138l0.001 0.004-0.391-1.839c5.528-2.374 9.329-7.772 9.329-14.057 0-0.011 0-0.023-0-0.034v0.002zM15.992 14.664c0.352 0 0.638 0.286 0.638 0.638s-0.285 0.638-0.638 0.638v0c-0.352 0-0.638-0.286-0.638-0.638s0.286-0.638 0.638-0.638v0zM18.092 29.528l2.184-1.948 0.603 2.84-2.787-0.892z"></path>
<path fill="#2196f3" style="fill: var(--color3, #2196f3)" d="M15.354 3.185v1.275c0 0.352 0.286 0.638 0.638 0.638s0.638-0.285 0.638-0.638v0-1.275c0-0.352-0.285-0.638-0.638-0.638s-0.638 0.285-0.638 0.638v0zM3.876 14.664c-0.352 0-0.638 0.286-0.638 0.638s0.285 0.638 0.638 0.638h1.275c0.352 0 0.638-0.286 0.638-0.638s-0.285-0.638-0.638-0.638h-1.275zM28.108 15.939c0.352 0 0.638-0.286 0.638-0.638s-0.285-0.638-0.638-0.638h-1.275c-0.352 0-0.638 0.286-0.638 0.638s0.285 0.638 0.638 0.638h1.275z"></path>
</symbol>
<symbol id="icon-diagram-1" viewBox="0 0 32 32">
<path fill="#2196f3" style="fill: var(--color3, #2196f3)" d="M14.926 14.945h1.066v4.798h-1.066v-4.798zM19.19 17.078h1.066v2.665h-1.066v-2.665zM10.661 18.677h1.066v1.066h-1.066v-1.066zM7.463 18.143h1.066v1.599h-1.066v-1.599z"></path>
<path fill="#212121" style="fill: var(--color2, #212121)" d="M1.599 28.271h25.586c0 0 0 0 0 0 0.883 0 1.599-0.716 1.599-1.599v0-2.132c0-0.883-0.716-1.599-1.599-1.599v0h-0.533v-13.294l3.028-2.868c0.207 0.104 0.452 0.166 0.711 0.166 0.888 0 1.608-0.72 1.608-1.608s-0.72-1.608-1.608-1.608c-0.888 0-1.608 0.72-1.608 1.608 0 0.247 0.056 0.481 0.155 0.69l-0.004-0.010-2.281 2.162v-1.23c0-0.883-0.716-1.599-1.599-1.599v0h-21.323c-0.883 0-1.599 0.716-1.599 1.599v0 15.992h-0.533c-0.883 0-1.599 0.716-1.599 1.599v0 2.132c0 0.883 0.716 1.599 1.599 1.599v0zM30.384 4.817c0.294 0 0.533 0.239 0.533 0.533s-0.239 0.533-0.533 0.533v0c-0.294 0-0.533-0.239-0.533-0.533s0.239-0.533 0.533-0.533v0zM3.198 6.949c0-0.294 0.239-0.533 0.533-0.533h21.323c0.294 0 0.533 0.239 0.533 0.533v2.239l-1.066 1.013v-2.185c0-0.295-0.239-0.534-0.534-0.534h-19.189c-0.294 0-0.534 0.239-0.534 0.533v13.327c0 0.294 0.239 0.533 0.534 0.533h19.189c0.295 0 0.534-0.239 0.534-0.533v-9.675l1.066-1.010v12.283h-22.389v-15.991zM7.996 13.879c-0.001 0-0.003 0-0.005 0-0.883 0-1.599 0.716-1.599 1.599s0.716 1.599 1.599 1.599c0.432 0 0.825-0.172 1.112-0.45l-0 0 1.853 0.93c0.215 0.107 0.476 0.057 0.636-0.122l3.939-4.432 3.872 2.902c0.208 0.155 0.498 0.139 0.686-0.039l3.365-3.188v8.131h-18.123v-12.261h18.123v2.661l-3.771 3.572-3.904-2.927c-0.088-0.067-0.2-0.107-0.32-0.107-0.158 0-0.3 0.069-0.398 0.178l-0 0.001-3.993 4.493-1.493-0.746c0.011-0.064 0.017-0.128 0.020-0.193 0-0.883-0.716-1.599-1.599-1.599v0zM8.529 15.478c0 0.294-0.239 0.533-0.533 0.533s-0.533-0.239-0.533-0.533v0c0-0.294 0.239-0.533 0.533-0.533s0.533 0.239 0.533 0.533v0zM11.727 24.007h5.33v0.533c0 0.294-0.238 0.533-0.533 0.533h-4.265c-0.294 0-0.533-0.239-0.533-0.533v0-0.533zM1.067 24.54c0-0.294 0.238-0.533 0.533-0.533h9.062v0.533c0 0.883 0.716 1.599 1.599 1.599v0h4.265c0.883 0 1.599-0.716 1.599-1.599v0-0.533h9.062c0.294 0 0.533 0.239 0.533 0.533v2.132c0 0.294-0.239 0.533-0.533 0.533h-25.586c-0 0-0 0-0 0-0.294 0-0.533-0.239-0.533-0.533 0 0 0 0 0 0v0-2.132z"></path>
</symbol>
<symbol id="icon-envelope" viewBox="0 0 43 32">
<path d="M38.667 0h-34.667c-2.205 0-4 1.795-4 4v24c0 2.205 1.795 4 4 4h34.667c2.205 0 4-1.795 4-4v-24c0-2.205-1.795-4-4-4zM38.667 2.667c0.181 0 0.355 0.037 0.512 0.104l-17.845 15.467-17.845-15.467c0.151-0.065 0.327-0.104 0.512-0.104h34.667zM38.667 29.333h-34.667c-0.736 0-1.333-0.597-1.333-1.333v0-22.413l17.792 15.421c0.233 0.203 0.539 0.327 0.875 0.327s0.642-0.124 0.876-0.328l-0.002 0.001 17.792-15.421v22.413c0 0.736-0.597 1.333-1.333 1.333v0z"></path>
</symbol>
<symbol id="icon-facebook" viewBox="0 0 16 32">
<path d="M13.329 5.313h2.921v-5.088c-0.504-0.069-2.237-0.225-4.256-0.225-4.212 0-7.097 2.649-7.097 7.519v4.481h-4.648v5.688h4.648v14.312h5.699v-14.311h4.46l0.708-5.688h-5.169v-3.919c0.001-1.644 0.444-2.769 2.735-2.769v0z"></path>
</symbol>
<symbol id="icon-instagram" viewBox="0 0 32 32">
<path d="M31.968 9.408c-0.074-1.701-0.349-2.869-0.742-3.882-0.424-1.111-1.054-2.059-1.85-2.837l-0.001-0.001c-0.78-0.792-1.724-1.419-2.778-1.827l-0.054-0.018c-1.019-0.394-2.181-0.667-3.882-0.742-1.712-0.082-2.256-0.101-6.602-0.101-4.344 0-4.888 0.019-6.595 0.094-1.699 0.074-2.869 0.349-3.88 0.742-1.112 0.424-2.060 1.054-2.839 1.85l-0.001 0.001c-0.791 0.78-1.418 1.724-1.825 2.778l-0.018 0.054c-0.395 1.019-0.669 2.181-0.744 3.882-0.082 1.712-0.101 2.256-0.101 6.602 0 4.344 0.019 4.888 0.094 6.595 0.075 1.701 0.35 2.869 0.744 3.882 0.426 1.11 1.055 2.057 1.849 2.837l0.001 0.001c0.8 0.813 1.77 1.443 2.832 1.843 1.019 0.395 2.182 0.67 3.882 0.744 1.707 0.075 2.251 0.094 6.595 0.094 4.346 0 4.89-0.019 6.595-0.094 1.701-0.074 2.869-0.349 3.882-0.742 2.157-0.85 3.833-2.526 4.664-4.628l0.019-0.055c0.394-1.019 0.669-2.182 0.744-3.882 0.075-1.707 0.093-2.251 0.093-6.595s-0.006-4.888-0.080-6.595zM29.088 22.474c-0.070 1.563-0.333 2.406-0.55 2.97-0.552 1.399-1.64 2.486-3.004 3.024l-0.036 0.012c-0.56 0.219-1.411 0.482-2.968 0.55-1.688 0.075-2.194 0.094-6.464 0.094-4.269 0-4.782-0.019-6.464-0.094-1.563-0.069-2.406-0.331-2.97-0.55-0.721-0.269-1.334-0.676-1.836-1.192l-0.001-0.001c-0.517-0.503-0.924-1.117-1.184-1.803l-0.011-0.034c-0.218-0.563-0.48-1.413-0.549-2.97-0.075-1.688-0.094-2.195-0.094-6.464 0-4.27 0.019-4.784 0.094-6.464 0.069-1.563 0.331-2.406 0.549-2.97 0.269-0.722 0.678-1.337 1.198-1.837l0.002-0.002c0.504-0.517 1.119-0.923 1.806-1.182l0.034-0.011c0.56-0.219 1.411-0.48 2.968-0.55 1.688-0.074 2.195-0.093 6.464-0.093 4.275 0 4.782 0.019 6.464 0.093 1.563 0.069 2.406 0.331 2.97 0.55 0.693 0.256 1.325 0.662 1.837 1.194 0.531 0.52 0.938 1.144 1.195 1.84 0.218 0.56 0.48 1.411 0.549 2.968 0.075 1.688 0.094 2.194 0.094 6.464 0 4.269-0.019 4.768-0.094 6.458z"></path>
<path d="M16.059 7.782c-4.539 0.002-8.218 3.682-8.219 8.221v0c0.091 4.471 3.737 8.060 8.221 8.060s8.13-3.589 8.221-8.052l0-0.009c-0.001-4.54-3.681-8.22-8.221-8.221h-0zM16.059 21.334c-2.945-0-5.332-2.388-5.332-5.333s2.388-5.333 5.333-5.333c0 0 0.001 0 0.001 0h-0c2.946 0 5.334 2.388 5.334 5.334s-2.388 5.334-5.334 5.334v0zM26.525 7.458c0 1.060-0.86 1.92-1.92 1.92s-1.92-0.86-1.92-1.92v0c0-1.060 0.86-1.92 1.92-1.92s1.92 0.86 1.92 1.92v0z"></path>
</symbol>
<symbol id="icon-linkedin-1" viewBox="0 0 32 32">
<path d="M31.992 32h0.008v-11.738c0-5.741-1.235-10.163-7.947-10.163-3.227 0-5.392 1.77-6.277 3.45h-0.093v-2.914h-6.365v21.363h6.627v-10.578c0-2.786 0.528-5.48 3.978-5.48 3.398 0 3.45 3.179 3.45 5.658v10.402h6.619zM0.528 10.635h6.635v21.365h-6.635v-21.365zM3.843-0c-2.123 0-3.843 1.721-3.843 3.843v0c0 2.12 1.722 3.878 3.843 3.878 2.12 0 3.842-1.757 3.842-3.878s-1.72-3.841-3.841-3.843h-0z"></path>
</symbol>
<symbol id="icon-Logo" viewBox="0 0 22 32">
<path d="M3.219 3.47l3.76 3.56-6.98-0.004v17.272h18.244v-6.604l3.756 3.556v-17.779h-18.781zM18.079 17.275l-10.662-10.093h10.662v10.093zM14.768 21.77h-11.882v-11.615h0.84v10.829h11.042v0.786zM5.693 26.597l-0.439 0.904-0.439-0.904h-0.368l0.641 1.205v0.702h0.333v-0.702l0.639-1.205h-0.367zM6.245 28.504l0.155-0.444h0.739l0.156 0.444h0.346l-0.722-1.908h-0.298l-0.72 1.908h0.345zM6.768 27.002l0.276 0.791h-0.553l0.276-0.791zM8.516 27.747c-0.045 0.067-0.072 0.15-0.072 0.239 0 0.001 0 0.002 0 0.003v-0c0 0.161 0.056 0.291 0.169 0.392s0.265 0.15 0.453 0.15c0.189 0 0.351-0.052 0.488-0.153l0.107 0.127h0.369l-0.28-0.332c0.11-0.15 0.165-0.343 0.165-0.578h-0.276c0 0.129-0.027 0.245-0.080 0.35l-0.368-0.435 0.13-0.094c0.079-0.053 0.145-0.12 0.196-0.197l0.002-0.003c0.038-0.062 0.060-0.137 0.060-0.217 0-0.001 0-0.002 0-0.003v0c0-0.002 0-0.005 0-0.007 0-0.117-0.052-0.223-0.133-0.295l-0-0c-0.085-0.077-0.198-0.124-0.322-0.124-0.007 0-0.013 0-0.020 0l0.001-0c-0.153 0-0.276 0.044-0.367 0.131s-0.136 0.204-0.136 0.354c0 0.061 0.014 0.124 0.043 0.19 0.030 0.065 0.082 0.145 0.156 0.238-0.141 0.101-0.236 0.189-0.284 0.263zM9.377 28.169c-0.082 0.066-0.187 0.106-0.301 0.107h-0c-0.005 0-0.010 0-0.015 0-0.082 0-0.157-0.032-0.213-0.083l0 0c-0.053-0.052-0.086-0.124-0.086-0.204 0-0.004 0-0.007 0-0.011l-0 0.001c0-0.102 0.053-0.193 0.157-0.273l0.041-0.029 0.416 0.491zM9.035 27.324c-0.090-0.111-0.135-0.203-0.135-0.276 0-0.064 0.019-0.116 0.055-0.158 0.034-0.039 0.084-0.063 0.14-0.063 0.003 0 0.005 0 0.008 0h-0c0.002-0 0.004-0 0.007-0 0.053 0 0.1 0.020 0.136 0.054l-0-0c0.038 0.035 0.056 0.078 0.056 0.127 0 0.002 0 0.005 0 0.007 0 0.071-0.031 0.135-0.081 0.178l-0 0-0.041 0.032-0.145 0.1zM12.14 28.36c0.131-0.114 0.206-0.274 0.225-0.476h-0.33c-0.018 0.136-0.059 0.233-0.124 0.292s-0.164 0.088-0.293 0.088c-0.142 0-0.251-0.054-0.325-0.163s-0.111-0.266-0.111-0.472v-0.169c0.002-0.204 0.041-0.357 0.118-0.463 0.078-0.106 0.189-0.158 0.333-0.158 0.124 0 0.218 0.031 0.282 0.091s0.105 0.159 0.121 0.296h0.33c-0.021-0.209-0.096-0.37-0.224-0.485s-0.298-0.172-0.509-0.172c-0.156 0-0.294 0.038-0.414 0.112-0.12 0.077-0.214 0.184-0.272 0.312l-0.002 0.005c-0.061 0.133-0.096 0.289-0.096 0.454 0 0.008 0 0.016 0 0.023l-0-0.001v0.178c0.003 0.175 0.035 0.329 0.098 0.463s0.152 0.235 0.267 0.307c0.116 0.072 0.251 0.107 0.402 0.107 0.217 0 0.392-0.056 0.523-0.17zM14.088 28.093c0.064-0.142 0.097-0.306 0.097-0.493v-0.106c0-0.006 0-0.013 0-0.020 0-0.17-0.037-0.331-0.102-0.476l0.003 0.007c-0.061-0.135-0.157-0.244-0.276-0.32l-0.003-0.002c-0.12-0.075-0.258-0.113-0.413-0.113s-0.293 0.038-0.414 0.114c-0.12 0.075-0.212 0.184-0.279 0.326-0.062 0.138-0.098 0.299-0.098 0.469 0 0.008 0 0.017 0 0.025l-0-0.001v0.107c0.001 0.183 0.034 0.343 0.099 0.483 0.067 0.14 0.16 0.248 0.281 0.324 0.121 0.075 0.259 0.113 0.414 0.113 0.157 0 0.295-0.038 0.414-0.113 0.12-0.076 0.213-0.185 0.277-0.325zM13.733 27.014c0.081 0.113 0.12 0.275 0.12 0.487v0.099c0 0.215-0.040 0.378-0.119 0.49-0.078 0.112-0.191 0.168-0.338 0.168-0.004 0-0.009 0-0.014 0-0.135 0-0.254-0.068-0.326-0.171l-0.001-0.001c-0.082-0.114-0.122-0.276-0.122-0.486v-0.11c0.002-0.205 0.043-0.364 0.123-0.475 0.072-0.103 0.189-0.169 0.323-0.169 0.005 0 0.010 0 0.014 0l-0.001-0c0.147 0 0.26 0.056 0.34 0.169z"></path>
</symbol>
<symbol id="icon-Logo2" viewBox="0 0 25 32">
<path d="M10.482 1.873h-0.084c-0.129-0.008-0.257-0.011-0.386-0.014h-0.279c-0.243 0-0.491 0.006-0.737 0.018-0.008-0.001-0.018-0.001-0.028-0.001s-0.020 0-0.029 0.001l0.001-0c-2.365 0.138-4.56 0.729-6.545 1.688l0.103-0.045-0.265 0.127v13.562l0.62-0.211c0.544-0.187 1.123-0.355 1.723-0.511 1.481-0.396 3.187-0.635 4.944-0.658l0.014-0v1.782c-0.222 0.001-0.437 0.007-0.652 0.018h-0.051c-1.392 0.078-2.697 0.287-3.953 0.616l0.138-0.031c-1.726 0.439-3.239 1.046-4.644 1.822l0.1-0.050v-17.393c1.373-0.816 2.96-1.481 4.642-1.912l0.126-0.027c1.347-0.362 2.894-0.573 4.489-0.579h0.265c0.313 0.008 0.619 0.022 0.905 0.043 0.755 0.053 1.504 0.173 2.239 0.357v1.754c-0.625-0.153-1.366-0.269-2.124-0.324l-0.045-0.003-0.045-0.004c-0.151-0.013-0.303-0.026-0.443-0.026zM13.569 3.665c0.389 0.030 0.792 0.044 1.199 0.044 1.681-0.007 3.308-0.227 4.859-0.637l-0.134 0.030c1.726-0.44 3.237-1.047 4.643-1.823l-0.1 0.051v17.083c-1.373 0.815-2.961 1.48-4.642 1.912l-0.127 0.028c-1.347 0.361-2.894 0.571-4.49 0.578h-0.004c-0.033 0-0.072 0-0.11 0-1.171 0-2.308-0.147-3.393-0.423l0.095 0.020v-17.194c0.263 0.061 0.535 0.117 0.81 0.163 0.453 0.076 0.93 0.132 1.395 0.167zM22.262 3.798l-0.62 0.208c-0.57 0.192-1.145 0.363-1.723 0.516-1.543 0.413-3.316 0.654-5.145 0.66h-0.004c-0.404 0-0.776-0.011-1.136-0.034l-0.494-0.032v13.951l0.424 0.037c0.393 0.035 0.799 0.052 1.208 0.052 1.444-0.006 2.84-0.197 4.17-0.551l-0.115 0.026c1.216-0.309 2.27-0.699 3.27-1.184l-0.101 0.044 0.265-0.127v-13.566z"></path>
<path d="M1.676 25.93c-0.166-0.172-0.399-0.279-0.657-0.279-0.011 0-0.023 0-0.034 0.001l0.002-0c-0.004-0-0.009-0-0.014-0-0.139 0-0.271 0.028-0.391 0.077l0.007-0.002c-0.235 0.094-0.418 0.279-0.508 0.51l-0.002 0.006c-0.049 0.123-0.073 0.253-0.071 0.385v2.324c-0.006 0.163 0.026 0.326 0.091 0.476 0.055 0.119 0.134 0.225 0.233 0.312 0.092 0.078 0.202 0.135 0.319 0.165 0.113 0.031 0.23 0.048 0.347 0.048 0.129 0.001 0.257-0.026 0.375-0.081 0.349-0.155 0.588-0.498 0.588-0.897v-0.26h-0.608v0.207c0 0.004 0 0.009 0 0.014 0 0.069-0.013 0.136-0.037 0.197l0.001-0.004c-0.021 0.051-0.051 0.095-0.088 0.131l-0 0c-0.070 0.054-0.158 0.087-0.254 0.089h-0c-0.011 0.001-0.023 0.002-0.036 0.002-0.102 0-0.193-0.050-0.249-0.126l-0.001-0.001c-0.051-0.082-0.081-0.181-0.081-0.288 0-0.008 0-0.016 0-0.024l-0 0.001v-2.167c-0.004-0.12 0.022-0.239 0.075-0.347 0.056-0.086 0.152-0.142 0.261-0.142 0.013 0 0.025 0.001 0.038 0.002l-0.002-0c0.003-0 0.007-0 0.011-0 0.106 0 0.2 0.051 0.259 0.131l0.001 0.001c0.063 0.082 0.101 0.186 0.101 0.299 0 0.005-0 0.009-0 0.014v-0.001 0.201h0.601v-0.237c0-0.003 0-0.007 0-0.010 0-0.143-0.027-0.279-0.077-0.404l0.003 0.007c-0.048-0.127-0.117-0.236-0.204-0.328l0 0zM5.285 25.904c-0.185-0.158-0.427-0.254-0.691-0.256h-0c-0.124 0-0.247 0.023-0.363 0.066-0.251 0.090-0.448 0.274-0.554 0.509l-0.002 0.006c-0.061 0.141-0.092 0.295-0.089 0.45v2.228c-0.004 0.157 0.026 0.312 0.089 0.456 0.055 0.12 0.135 0.227 0.235 0.312 0.093 0.086 0.202 0.153 0.321 0.196 0.116 0.043 0.239 0.065 0.363 0.066 0.265-0.001 0.508-0.1 0.692-0.263l-0.001 0.001c0.097-0.087 0.175-0.193 0.229-0.312 0.062-0.143 0.092-0.299 0.089-0.456v-2.229c0-0.006 0-0.013 0-0.019 0-0.155-0.033-0.303-0.092-0.437l0.003 0.007c-0.057-0.127-0.134-0.235-0.229-0.325l-0-0zM5.002 28.908c0.001 0.010 0.002 0.022 0.002 0.034 0 0.113-0.047 0.215-0.122 0.288l-0 0c-0.077 0.065-0.177 0.104-0.286 0.104s-0.209-0.039-0.287-0.105l0.001 0c-0.075-0.073-0.122-0.174-0.122-0.287 0-0.012 0.001-0.025 0.002-0.037l-0 0.002v-2.229c-0.001-0.010-0.002-0.022-0.002-0.034 0-0.113 0.047-0.215 0.122-0.288l0-0c0.077-0.065 0.177-0.104 0.286-0.104s0.209 0.039 0.287 0.105l-0.001-0c0.075 0.073 0.122 0.175 0.122 0.287 0 0.012-0 0.024-0.002 0.036l0-0.002v2.23zM10.025 29.904v-4.22h-0.584l-0.768 2.234h-0.010l-0.774-2.233h-0.578v4.219h0.603v-2.566h0.011l0.59 1.814h0.301l0.595-1.814h0.011v2.566h0.603zM13.449 25.98c-0.092-0.104-0.21-0.184-0.341-0.231-0.124-0.042-0.266-0.066-0.414-0.066-0.008 0-0.016 0-0.024 0h-0.894v4.22h0.601v-1.648h0.309c0.188 0.009 0.374-0.031 0.543-0.115 0.138-0.078 0.25-0.187 0.328-0.319l0.002-0.004c0.069-0.112 0.116-0.237 0.138-0.368 0.021-0.133 0.033-0.286 0.033-0.442 0-0.013-0-0.026-0-0.040l0 0.002c0.006-0.202-0.014-0.406-0.059-0.603-0.043-0.152-0.119-0.282-0.222-0.388l0 0zM13.139 27.266c-0.003 0.081-0.023 0.156-0.057 0.223l0.001-0.003c-0.035 0.065-0.088 0.116-0.153 0.147l-0.002 0.001c-0.074 0.034-0.161 0.054-0.252 0.054-0.011 0-0.022-0-0.033-0.001l0.002 0h-0.274v-1.435h0.31c0.009-0 0.019-0.001 0.029-0.001 0.088 0 0.171 0.020 0.246 0.055l-0.004-0.002c0.062 0.036 0.111 0.090 0.14 0.153l0.001 0.002c0.033 0.074 0.051 0.154 0.053 0.235v0.281c0 0.098 0.006 0.2 0 0.29h-0.006zM16.297 25.684h-0.493l-0.93 4.22h0.601l0.176-0.906h0.82l0.176 0.906h0.601l-0.952-4.22zM15.742 28.422l0.296-1.529h0.011l0.294 1.529h-0.601zM20.182 28.226h-0.011l-0.908-2.542h-0.578v4.22h0.601v-2.538h0.012l0.919 2.537h0.566v-4.219h-0.601v2.542zM23.855 25.684l-0.484 1.678h-0.012l-0.484-1.678h-0.636l0.826 2.436v1.783h0.601v-1.783l0.826-2.436h-0.637zM-0 31.095h0.29v0.813h0.197v-0.813h0.288v-0.167h-0.774v0.167zM2.436 30.928l-0.38 0.98h0.209l0.081-0.223h0.391l0.083 0.223h0.214l-0.39-0.98h-0.209zM2.405 31.52l0.133-0.363 0.133 0.363h-0.266zM4.844 31.546h0.227v0.126c-0.063 0.051-0.144 0.082-0.233 0.083h-0c-0.004 0-0.009 0-0.014 0-0.078 0-0.149-0.037-0.194-0.094l-0-0c-0.046-0.065-0.073-0.146-0.073-0.233 0-0.008 0-0.015 0.001-0.023l-0 0.001c0-0.218 0.094-0.327 0.282-0.327 0.006-0.001 0.014-0.001 0.021-0.001 0.096 0 0.178 0.066 0.2 0.156l0 0.002 0.194-0.038c-0.042-0.191-0.179-0.288-0.415-0.288-0.004-0-0.008-0-0.013-0-0.127 0-0.242 0.048-0.33 0.127l0-0c-0.088 0.087-0.142 0.207-0.142 0.34 0 0.013 0 0.026 0.002 0.038l-0-0.002c-0 0.007-0 0.015-0 0.023 0 0.132 0.048 0.252 0.127 0.345l-0.001-0.001c0.086 0.089 0.208 0.145 0.342 0.145 0.011 0 0.021-0 0.032-0.001l-0.001 0c0.005 0 0.010 0 0.016 0 0.154 0 0.295-0.059 0.4-0.157l-0 0v-0.386h-0.424v0.165zM7.303 30.928h-0.199v0.98h0.686v-0.167h-0.488v-0.813zM9.382 30.928h-0.198v0.98h0.198v-0.98zM11.414 31.582l-0.401-0.654h-0.192v0.98h0.184v-0.64l0.394 0.64h0.197v-0.98h-0.182v0.655zM13.253 31.476h0.488v-0.167h-0.488v-0.214h0.525v-0.167h-0.723v0.98h0.744v-0.167h-0.545v-0.265zM17.708 31.314h-0.386v-0.386h-0.196v0.979h0.196v-0.429h0.386v0.429h0.197v-0.98h-0.197v0.386zM19.557 31.476h0.49v-0.167h-0.49v-0.214h0.527v-0.167h-0.723v0.98h0.742v-0.167h-0.545v-0.265zM22.064 31.477c0.171-0.027 0.257-0.117 0.257-0.273 0.001-0.008 0.002-0.018 0.002-0.028 0-0.078-0.038-0.147-0.097-0.19l-0.001-0c-0.072-0.037-0.158-0.059-0.249-0.059-0.013 0-0.027 0-0.040 0.002l0.002-0h-0.415v0.979h0.197v-0.41h0.038c0.005-0 0.010-0 0.016-0 0.039 0 0.075 0.008 0.108 0.023l-0.002-0.001c0.029 0.018 0.053 0.042 0.070 0.072l0.214 0.311h0.235l-0.119-0.191c-0.054-0.096-0.127-0.175-0.214-0.234l-0.002-0.002zM21.865 31.341h-0.145v-0.246h0.155c0.012-0.001 0.027-0.002 0.041-0.002 0.056 0 0.111 0.009 0.162 0.026l-0.004-0.001c0.026 0.024 0.043 0.058 0.043 0.096 0 0.042-0.020 0.080-0.052 0.103l-0 0c-0.049 0.016-0.105 0.024-0.164 0.024-0.013 0-0.026-0-0.038-0.001l0.002 0zM23.955 31.476h0.488v-0.167h-0.488v-0.214h0.527v-0.167h-0.725v0.98h0.744v-0.167h-0.545v-0.265z"></path>
</symbol>
<symbol id="icon-Logo3" viewBox="0 0 32 32">
<path d="M4.952 30.586c0.012 0 0.024 0.003 0.034 0.007s0.021 0.010 0.029 0.018l-0-0 0.161 0.153c-0.125 0.124-0.279 0.224-0.452 0.292-0.178 0.067-0.384 0.105-0.599 0.105-0.015 0-0.029-0-0.044-0.001l0.002 0c-0.206 0.004-0.411-0.029-0.602-0.098-0.176-0.064-0.327-0.157-0.455-0.276l0.001 0.001c-0.124-0.117-0.223-0.259-0.289-0.418l-0.003-0.008c-0.065-0.157-0.103-0.34-0.103-0.531 0-0.005 0-0.011 0-0.016v0.001c-0-0.008-0-0.018-0-0.028 0-0.375 0.163-0.712 0.421-0.944l0.001-0.001c0.137-0.12 0.301-0.214 0.482-0.278 0.198-0.066 0.409-0.099 0.621-0.097 0.011-0 0.025-0 0.038-0 0.192 0 0.377 0.033 0.549 0.092l-0.012-0.004c0.159 0.060 0.305 0.144 0.432 0.247l-0.135 0.163c-0.010 0.012-0.021 0.021-0.033 0.029l-0.001 0c-0.013 0.008-0.030 0.013-0.047 0.013-0.003 0-0.005-0-0.008-0l0 0c-0.022-0.001-0.042-0.007-0.060-0.017l0.001 0-0.071-0.044-0.101-0.056c-0.092-0.045-0.198-0.079-0.31-0.096l-0.006-0.001c-0.067-0.011-0.144-0.018-0.222-0.018-0.006 0-0.012 0-0.018 0h0.001c-0.004-0-0.010-0-0.015-0-0.154 0-0.303 0.027-0.44 0.077l0.009-0.003c-0.135 0.048-0.252 0.118-0.351 0.207l0.001-0.001c-0.1 0.094-0.177 0.206-0.227 0.328-0.052 0.123-0.082 0.267-0.082 0.417 0 0.005 0 0.011 0 0.016v-0.001c-0 0.005-0 0.012-0 0.018 0 0.152 0.030 0.297 0.085 0.429l-0.003-0.008c0.049 0.121 0.125 0.231 0.223 0.326 0.092 0.088 0.206 0.158 0.334 0.202 0.131 0.047 0.271 0.071 0.413 0.070 0.082 0.001 0.164-0.004 0.245-0.014 0.204-0.021 0.386-0.103 0.531-0.226l-0.001 0.001c0.021-0.017 0.047-0.027 0.076-0.028h0zM9.59 29.816c0 0.005 0 0.011 0 0.016 0 0.19-0.040 0.371-0.112 0.535l0.003-0.009c-0.071 0.166-0.174 0.307-0.301 0.42l-0.001 0.001c-0.133 0.119-0.291 0.213-0.465 0.273l-0.010 0.003c-0.182 0.062-0.392 0.098-0.61 0.098s-0.428-0.036-0.624-0.102l0.014 0.004c-0.182-0.065-0.339-0.159-0.473-0.279l0.001 0.001c-0.129-0.116-0.232-0.258-0.302-0.418l-0.003-0.008c-0.069-0.16-0.108-0.347-0.108-0.543s0.040-0.383 0.112-0.552l-0.003 0.009c0.068-0.159 0.172-0.304 0.306-0.427 0.134-0.117 0.295-0.208 0.471-0.267 0.182-0.063 0.392-0.1 0.61-0.1s0.428 0.036 0.624 0.104l-0.014-0.004c0.178 0.063 0.339 0.157 0.473 0.277 0.133 0.122 0.236 0.265 0.303 0.42 0.074 0.175 0.111 0.36 0.108 0.546zM9.168 29.816c0-0.007 0-0.015 0-0.023 0-0.149-0.028-0.291-0.079-0.422l0.003 0.008c-0.098-0.251-0.298-0.444-0.547-0.53l-0.006-0.002c-0.132-0.045-0.285-0.072-0.444-0.072s-0.311 0.026-0.454 0.074l0.010-0.003c-0.132 0.047-0.245 0.117-0.34 0.207l0-0c-0.094 0.089-0.168 0.198-0.215 0.32l-0.002 0.006c-0.048 0.13-0.077 0.279-0.077 0.436s0.028 0.306 0.079 0.445l-0.003-0.009c0.098 0.252 0.299 0.445 0.55 0.528l0.006 0.002c0.286 0.093 0.601 0.093 0.887 0 0.129-0.045 0.244-0.115 0.339-0.204 0.096-0.095 0.169-0.206 0.215-0.326 0.054-0.14 0.079-0.288 0.077-0.436zM12.754 30.273l0.043 0.097c0.015-0.035 0.029-0.066 0.046-0.097 0.018-0.038 0.035-0.069 0.054-0.099l-0.002 0.004 1.026-1.621c0.021-0.028 0.038-0.046 0.059-0.051s0.045-0.009 0.070-0.009c0.005 0 0.009 0 0.014 0l-0.001-0h0.303v2.636h-0.359v-2.020c-0.001-0.014-0.002-0.030-0.002-0.046s0.001-0.032 0.002-0.048l-0 0.002-1.033 1.643c-0.014 0.025-0.035 0.046-0.060 0.059l-0.001 0c-0.025 0.014-0.055 0.022-0.087 0.022-0.001 0-0.001 0-0.002 0h-0.058c-0.001 0-0.001 0-0.002 0-0.032 0-0.061-0.008-0.087-0.023l0.001 0c-0.025-0.014-0.046-0.034-0.059-0.059l-0-0.001-1.063-1.654v2.115h-0.347v-2.63h0.303c0.004-0 0.009-0 0.014-0 0.025 0 0.049 0.003 0.072 0.010l-0.002-0c0.025 0.011 0.044 0.029 0.056 0.051l1.048 1.622c0.019 0.027 0.036 0.058 0.051 0.091l0.001 0.004zM16.614 30.142v0.987h-0.401v-2.632h0.895c0.169-0.003 0.337 0.017 0.5 0.057 0.13 0.032 0.25 0.088 0.353 0.164 0.086 0.068 0.154 0.154 0.199 0.253l0.002 0.004c0.048 0.108 0.071 0.222 0.068 0.337 0 0.005 0 0.011 0 0.016 0 0.238-0.113 0.449-0.289 0.583l-0.002 0.001c-0.103 0.079-0.225 0.138-0.356 0.174-0.135 0.039-0.291 0.061-0.452 0.061-0.011 0-0.022-0-0.033-0l-0.484-0.007zM16.614 29.859h0.486c0.105 0.001 0.211-0.012 0.311-0.040 0.086-0.025 0.161-0.064 0.226-0.115l-0.002 0.001c0.113-0.093 0.184-0.233 0.184-0.39 0-0.002 0-0.004-0-0.006v0c0.001-0.008 0.001-0.018 0.001-0.028 0-0.067-0.015-0.131-0.042-0.189l0.001 0.003c-0.034-0.072-0.081-0.131-0.139-0.179l-0.001-0.001c-0.134-0.090-0.299-0.144-0.477-0.144-0.022 0-0.045 0.001-0.067 0.003l0.003-0h-0.486v1.085zM22.010 31.132h-0.317c-0.002 0-0.004 0-0.006 0-0.031 0-0.059-0.009-0.083-0.025l0.001 0c-0.022-0.016-0.040-0.036-0.053-0.060l-0-0.001-0.272-0.636h-1.372l-0.283 0.636c-0.025 0.051-0.076 0.085-0.136 0.085-0.001 0-0.003 0-0.004-0h-0.318l1.205-2.636h0.418l1.221 2.636zM20.022 30.153h1.132l-0.477-1.073c-0.037-0.081-0.066-0.163-0.091-0.247l-0.046 0.138c-0.014 0.042-0.029 0.081-0.044 0.112l-0.473 1.071zM23.745 28.509c0.024 0.011 0.044 0.027 0.060 0.046l1.757 1.987v-2.046h0.359v2.636h-0.2c-0.001 0-0.003 0-0.005 0-0.028 0-0.055-0.006-0.079-0.017l0.001 0c-0.025-0.013-0.047-0.029-0.065-0.048l-0-0-1.754-1.985c0.001 0.014 0.001 0.029 0.001 0.045s-0.001 0.032-0.002 0.047l0-0.002v1.959h-0.359v-2.636h0.213c0.024 0 0.049 0.004 0.072 0.012zM28.88 30.084v1.046h-0.401v-1.046l-1.11-1.587h0.359c0.003-0 0.006-0 0.009-0 0.029 0 0.055 0.008 0.078 0.023l-0.001-0c0.022 0.018 0.041 0.038 0.055 0.060l0.694 1.024c0.028 0.044 0.052 0.084 0.072 0.122s0.037 0.075 0.051 0.111l0.052-0.113c0.020-0.041 0.043-0.081 0.068-0.12l0.685-1.031c0.015-0.021 0.032-0.040 0.051-0.056l0-0c0.022-0.016 0.049-0.026 0.079-0.026 0.003 0 0.005 0 0.008 0h0.363l-1.112 1.594zM12.555 24.074c0.175 0.019 0.351 0.035 0.53 0.049 2.709-1.053 5-2.776 6.588-4.954s2.401-4.715 2.339-7.292l-2.985-2.593c0.607 2.744 0.323 5.581-0.82 8.194s-3.1 4.896-5.653 6.597z"></path>
<path d="M11.489 23.953l0.080 0.015c2.727-1.696 4.806-4.062 5.968-6.795s1.355-5.706 0.552-8.534l-4.252-3.694c1.719 3.037 2.412 6.435 1.995 9.8-0.415 3.365-1.922 6.558-4.344 9.208zM25.909 14.921c-0.722 2.833-2.477 5.387-5.002 7.284-0.69 0.525-1.468 1.017-2.288 1.44l-0.089 0.042c2.057-0.525 3.947-1.454 5.526-2.714s2.803-2.819 3.578-4.556l-1.724-1.497z"></path>
<path d="M25.233 14.505l-2.455-2.133c-0.047 2.432-0.843 4.809-2.305 6.883s-3.537 3.771-6.008 4.913h0.012c0.551 0 1.101-0.029 1.648-0.085 2.31-0.82 4.351-2.123 5.94-3.794s2.678-3.658 3.168-5.784zM11.844 3.386l-2.929-2.548c-2.618 0.879-4.87 2.425-6.461 4.434s-2.446 4.389-2.454 6.829c0.010 2.695 1.054 5.31 2.967 7.432 1.912 2.121 4.585 3.628 7.594 4.281 2.686-2.844 4.26-6.357 4.49-10.031s-0.893-7.315-3.207-10.397zM32 14.112c-0.010-3.197-1.477-6.261-4.079-8.522s-6.129-3.535-9.809-3.545c-0.009 0-0.019-0-0.029-0-1.768 0-3.468 0.294-5.053 0.837l0.11-0.033 17.933 15.582c0.585-1.269 0.926-2.754 0.928-4.319v-0.001z"></path>
</symbol>
<symbol id="icon-Logo4" viewBox="0 0 37 32">
<path d="M7.079 11.741h-0.002c-1.291 0-2.338 0.93-2.338 2.078v0.002c0 1.148 1.047 2.078 2.338 2.078h0.002c1.291 0 2.338-0.931 2.338-2.078v-0.001c0-1.148-1.047-2.079-2.338-2.079zM24.337 11.077c-0.004-1.594-0.718-3.122-1.986-4.249s-2.987-1.762-4.78-1.766c-1.794 0.003-3.514 0.638-4.783 1.765s-1.983 2.655-1.987 4.25v8.79s13.534-1.34 13.536-8.788v-0.002zM-0 22.752c0.003 1.109 0.501 2.172 1.383 2.956s2.078 1.226 3.326 1.229c1.248-0.003 2.443-0.445 3.326-1.229s1.38-1.846 1.383-2.955v-6.116s-9.417 0.933-9.417 6.115zM4.708 23.847c-0.244 0-0.482-0.064-0.685-0.185-0.197-0.116-0.353-0.284-0.451-0.485l-0.003-0.007c-0.059-0.123-0.094-0.267-0.094-0.419 0-0.076 0.009-0.15 0.025-0.221l-0.001 0.007c0.047-0.213 0.165-0.408 0.337-0.561s0.392-0.258 0.631-0.3c0.072-0.014 0.156-0.021 0.241-0.021 0.169 0 0.331 0.030 0.481 0.086l-0.010-0.003c0.226 0.083 0.418 0.224 0.554 0.404s0.208 0.392 0.208 0.608c0.001 0.144-0.031 0.288-0.093 0.421-0.067 0.14-0.157 0.259-0.266 0.355l-0.001 0.001c-0.114 0.102-0.25 0.183-0.401 0.239-0.14 0.053-0.302 0.084-0.472 0.084-0 0-0.001 0-0.001 0h0v-0.004zM14.226 23.244h-0.909v0.939h-0.473v-2.298h1.496v0.383h-1.023v0.593h0.909v0.382zM16.5 23.086c0 0.226-0.040 0.424-0.12 0.595s-0.195 0.302-0.345 0.395c-0.14 0.087-0.311 0.139-0.493 0.139-0.006 0-0.012-0-0.018-0h0.001c-0.191 0-0.361-0.046-0.51-0.137-0.151-0.095-0.27-0.228-0.344-0.386l-0.002-0.006c-0.079-0.166-0.125-0.361-0.125-0.567 0-0.007 0-0.014 0-0.021v0.001-0.113c0-0.226 0.040-0.425 0.121-0.597 0.082-0.172 0.197-0.305 0.346-0.396 0.149-0.093 0.319-0.139 0.511-0.139s0.361 0.046 0.509 0.139c0.15 0.092 0.264 0.224 0.346 0.396 0.082 0.171 0.123 0.369 0.123 0.595v0.102zM16.021 22.982c0-0.241-0.043-0.424-0.129-0.549-0.077-0.114-0.205-0.188-0.351-0.188-0.007 0-0.013 0-0.019 0l0.001-0c-0.005-0-0.012-0-0.018-0-0.145 0-0.273 0.073-0.349 0.185l-0.001 0.001c-0.086 0.123-0.13 0.304-0.131 0.543v0.112c0 0.234 0.043 0.416 0.129 0.546s0.21 0.194 0.373 0.194c0.006 0 0.012 0 0.019 0 0.144 0 0.272-0.073 0.347-0.185l0.001-0.001c0.085-0.125 0.128-0.307 0.129-0.546v-0.112zM18.035 23.58c0-0.004 0-0.009 0-0.013 0-0.078-0.037-0.147-0.094-0.191l-0.001-0c-0.063-0.048-0.177-0.099-0.341-0.151-0.151-0.047-0.28-0.101-0.403-0.164l0.014 0.006c-0.261-0.141-0.391-0.331-0.391-0.57 0-0.124 0.034-0.235 0.104-0.331 0.071-0.098 0.171-0.174 0.302-0.229 0.131-0.054 0.279-0.082 0.442-0.082 0.164 0 0.31 0.030 0.439 0.090 0.128 0.059 0.228 0.142 0.298 0.251 0.072 0.108 0.108 0.232 0.108 0.369h-0.474c0-0.105-0.032-0.187-0.099-0.244-0.066-0.059-0.159-0.088-0.279-0.088-0.116 0-0.206 0.025-0.27 0.074-0.059 0.042-0.096 0.11-0.096 0.187 0 0.002 0 0.004 0 0.006v-0c0 0.075 0.038 0.137 0.112 0.188 0.075 0.050 0.187 0.097 0.333 0.142 0.269 0.081 0.465 0.181 0.589 0.302s0.185 0.269 0.185 0.448c0 0.199-0.075 0.355-0.226 0.468s-0.352 0.169-0.607 0.169c-0.177 0-0.338-0.032-0.483-0.097-0.136-0.058-0.249-0.149-0.331-0.264l-0.002-0.002c-0.071-0.106-0.113-0.237-0.113-0.377 0-0.005 0-0.010 0-0.015v0.001h0.474c0 0.253 0.151 0.38 0.454 0.38 0.113 0 0.2-0.023 0.264-0.068 0.057-0.041 0.094-0.108 0.094-0.183 0-0.003-0-0.006-0-0.009v0zM20.561 22.269h-0.703v1.914h-0.474v-1.914h-0.693v-0.383h1.871v0.383zM22.214 23.187h-0.908v0.616h1.066v0.38h-1.54v-2.298h1.537v0.383h-1.064v0.548h0.909v0.37zM23.5 23.342h-0.377v0.841h-0.473v-2.298h0.854c0.271 0 0.481 0.061 0.628 0.181s0.221 0.292 0.221 0.513c0 0.157-0.034 0.288-0.102 0.393-0.076 0.11-0.18 0.196-0.303 0.248l-0.005 0.002 0.496 0.939v0.022h-0.508l-0.431-0.84zM23.123 22.958h0.382c0.118 0 0.21-0.030 0.276-0.089 0.060-0.059 0.098-0.142 0.098-0.233 0-0.006-0-0.012-0-0.018l0 0.001c0-0.109-0.031-0.194-0.093-0.256s-0.155-0.093-0.283-0.093h-0.38v0.689zM25.991 23.373v0.809h-0.473v-2.298h0.896c0.172 0 0.324 0.032 0.454 0.095 0.131 0.063 0.233 0.153 0.303 0.27 0.070 0.116 0.106 0.248 0.106 0.396 0 0.225-0.078 0.403-0.232 0.533-0.154 0.129-0.367 0.194-0.639 0.194h-0.415zM25.991 22.99h0.423c0.125 0 0.221-0.030 0.285-0.088 0.067-0.059 0.1-0.143 0.1-0.253 0-0.005 0-0.011 0-0.017 0-0.099-0.038-0.189-0.1-0.256l0 0c-0.066-0.069-0.158-0.105-0.275-0.107h-0.434v0.722zM28.985 23.187h-0.908v0.616h1.066v0.38h-1.54v-2.298h1.537v0.383h-1.064v0.548h0.909v0.37zM31.182 22.269h-0.704v1.914h-0.473v-1.914h-0.694v-0.383h1.871v0.383zM32.835 23.187h-0.908v0.616h1.066v0.38h-1.54v-2.298h1.537v0.383h-1.063v0.548h0.908v0.37zM34.121 23.342h-0.377v0.841h-0.474v-2.298h0.854c0.271 0 0.48 0.061 0.628 0.181s0.221 0.292 0.221 0.513c0 0.157-0.034 0.288-0.102 0.393-0.076 0.11-0.181 0.196-0.303 0.248l-0.005 0.002 0.497 0.939v0.022h-0.508l-0.431-0.84zM33.744 22.958h0.382c0.118 0 0.211-0.030 0.276-0.089 0.061-0.059 0.098-0.142 0.098-0.234 0-0.006-0-0.012-0-0.018l0 0.001c0-0.109-0.031-0.194-0.093-0.256-0.061-0.062-0.155-0.093-0.282-0.093h-0.38v0.689zM36.525 23.58c0-0.004 0-0.009 0-0.013 0-0.078-0.037-0.147-0.095-0.191l-0.001-0c-0.063-0.048-0.177-0.099-0.341-0.151-0.151-0.047-0.28-0.101-0.403-0.164l0.014 0.006c-0.261-0.141-0.391-0.331-0.391-0.57 0-0.124 0.035-0.235 0.104-0.331 0.071-0.098 0.171-0.174 0.302-0.229 0.131-0.054 0.279-0.082 0.442-0.082 0.164 0 0.31 0.030 0.439 0.090 0.128 0.059 0.228 0.142 0.298 0.251 0.072 0.108 0.108 0.232 0.108 0.369h-0.474c0-0.105-0.032-0.187-0.099-0.244-0.066-0.059-0.159-0.088-0.279-0.088-0.116 0-0.206 0.025-0.27 0.074-0.059 0.042-0.097 0.11-0.097 0.187 0 0.002 0 0.003 0 0.005v-0c0 0.075 0.038 0.137 0.113 0.188s0.187 0.097 0.333 0.142c0.269 0.081 0.465 0.181 0.589 0.302s0.185 0.269 0.185 0.448c0 0.199-0.075 0.355-0.226 0.468s-0.353 0.169-0.607 0.169c-0.177 0-0.338-0.032-0.483-0.097-0.136-0.058-0.249-0.149-0.331-0.264l-0.002-0.002c-0.071-0.106-0.113-0.237-0.113-0.377 0-0.005 0-0.010 0-0.015v0.001h0.474c0 0.253 0.151 0.38 0.454 0.38 0.113 0 0.2-0.023 0.263-0.068 0.058-0.041 0.095-0.108 0.095-0.184 0-0.003-0-0.006-0-0.009v0z"></path>
</symbol>
<symbol id="icon-Logo5" viewBox="0 0 34 32">
<path d="M2.548 24.17c0.131 0.148 0.2 0.333 0.197 0.523 0.001 0.012 0.001 0.026 0.001 0.040 0 0.117-0.026 0.228-0.073 0.327l0.002-0.005c-0.056 0.119-0.136 0.219-0.233 0.298l-0.002 0.001c-0.222 0.153-0.496 0.244-0.792 0.244-0.032 0-0.065-0.001-0.097-0.003l0.004 0h-1.556v-3.316h1.523c0.027-0.002 0.058-0.003 0.090-0.003 0.28 0 0.541 0.083 0.759 0.226l-0.005-0.003c0.099 0.076 0.177 0.171 0.228 0.279 0.051 0.108 0.074 0.225 0.068 0.343 0.009 0.182-0.054 0.363-0.177 0.507-0.118 0.132-0.282 0.223-0.464 0.259 0.206 0.034 0.393 0.135 0.525 0.284zM0.724 23.669h0.651c0.148 0.010 0.295-0.029 0.414-0.11 0.047-0.039 0.085-0.089 0.11-0.145l0.001-0.003c0.019-0.043 0.030-0.093 0.030-0.145 0-0.011-0-0.022-0.001-0.033l0 0.001c0.001-0.008 0.001-0.018 0.001-0.028 0-0.054-0.011-0.105-0.031-0.151l0.001 0.002c-0.026-0.059-0.062-0.108-0.108-0.147l-0.001-0c-0.105-0.071-0.235-0.114-0.374-0.114-0.018 0-0.036 0.001-0.054 0.002l0.002-0h-0.641v0.87zM1.853 24.941c0.051-0.040 0.091-0.091 0.119-0.15l0.001-0.003c0.022-0.047 0.035-0.101 0.035-0.159 0-0.009-0-0.018-0.001-0.027l0 0.001c0-0.007 0.001-0.016 0.001-0.024 0-0.059-0.013-0.115-0.037-0.166l0.001 0.002c-0.029-0.061-0.071-0.112-0.121-0.152l-0.001-0.001c-0.112-0.076-0.25-0.121-0.399-0.121-0.015 0-0.030 0-0.046 0.001l0.002-0h-0.683v0.912h0.692c0.155 0.008 0.31-0.032 0.437-0.115zM5.662 25.596l-0.847-1.296h-0.319v1.296h-0.729v-3.316h1.38c0.029-0.002 0.064-0.003 0.098-0.003 0.325 0 0.624 0.107 0.866 0.288l-0.004-0.003c0.193 0.18 0.31 0.417 0.328 0.669 0.002 0.021 0.002 0.045 0.002 0.070 0 0.242-0.086 0.463-0.229 0.636l0.001-0.002c-0.171 0.176-0.398 0.298-0.652 0.336l-0.006 0.001 0.903 1.325h-0.793zM4.496 23.847h0.596c0.414 0 0.621-0.167 0.621-0.502 0-0.008 0.001-0.017 0.001-0.027 0-0.063-0.013-0.123-0.036-0.177l0.001 0.003c-0.028-0.067-0.068-0.125-0.118-0.172l-0-0c-0.113-0.085-0.256-0.137-0.411-0.137-0.020 0-0.040 0.001-0.060 0.003l0.003-0h-0.603l0.007 1.009zM9.647 24.928h-1.453l-0.257 0.668h-0.764l1.334-3.279h0.827l1.328 3.279h-0.764l-0.251-0.667zM9.453 24.426l-0.531-1.4-0.531 1.4h1.062zM14.635 25.596h-0.723l-1.623-2.255v2.255h-0.722v-3.317h0.722l1.623 2.268v-2.268h0.723v3.317zM18.766 24.802c-0.15 0.25-0.378 0.454-0.655 0.585-0.281 0.132-0.611 0.21-0.959 0.21-0.021 0-0.041-0-0.062-0.001l0.003 0h-1.288v-3.316h1.288c0.018-0 0.039-0.001 0.061-0.001 0.347 0 0.676 0.075 0.972 0.21l-0.015-0.006c0.277 0.129 0.505 0.33 0.655 0.579 0.149 0.27 0.227 0.568 0.227 0.87s-0.078 0.6-0.227 0.87zM17.938 24.722c0.196-0.206 0.318-0.484 0.32-0.791v-0c0-0.29-0.114-0.571-0.32-0.791-0.224-0.178-0.511-0.285-0.823-0.285-0.029 0-0.058 0.001-0.087 0.003l0.004-0h-0.502v2.147h0.502c0.025 0.002 0.054 0.003 0.083 0.003 0.312 0 0.599-0.107 0.826-0.287l-0.003 0.002zM10.1 3.832s9.341 3.229 9.143 7.901v7.903s-9.334-3.23-9.14-7.903l-0.003-7.902zM27.565 17.786c1.764-1.111 3.805-1.8 5.935-2.002v-2.475c-2.454 0.867-4.537 2.437-5.935 4.477z"></path>
<path d="M26.505 18.532c1.444-2.662 3.947-4.716 6.995-5.741v-7.129s-13.303 4.6-13.022 11.254v11.252s0.593-0.206 1.526-0.591c0-0.359 0-0.723 0.043-1.087 0.275-3.089 1.879-5.951 4.459-7.958z"></path>
<path d="M25.24 22.712c0.070-0.78 0.226-1.552 0.465-2.304-1.606 1.733-2.579 3.884-2.781 6.149-0.020 0.214-0.031 0.427-0.036 0.648 1.11-0.485 1.95-0.899 2.773-1.34l-0.214 0.105c-0.236-1.072-0.305-2.169-0.207-3.258zM25.769 22.752c-0.026 0.274-0.041 0.592-0.041 0.913 0 0.721 0.075 1.425 0.217 2.104l-0.012-0.066c3.634-1.992 7.719-5.068 7.561-8.786v-0.324c-2.597 0.266-5.026 1.305-6.915 2.958-0.417 0.936-0.705 2.022-0.808 3.162l-0.003 0.040z"></path>
</symbol>
<symbol id="icon-Logo6" viewBox="0 0 50 32">
<path d="M25.282 15.296c-0.203-0.262-0.326-0.596-0.326-0.958 0-0.036 0.001-0.071 0.004-0.107l-0 0.005v-1.537c0-0.471 0.107-0.829 0.321-1.074 0.213-0.245 0.581-0.367 1.101-0.366 0.489 0 0.836 0.104 1.041 0.313 0.224 0.266 0.333 0.591 0.308 0.919v0.361h-0.874v-0.366c0.003-0.119-0.005-0.239-0.026-0.358-0.015-0.087-0.060-0.161-0.125-0.212l-0.001-0.001c-0.079-0.053-0.175-0.084-0.279-0.084-0.013 0-0.026 0.001-0.039 0.001l0.002-0c-0.011-0.001-0.025-0.001-0.038-0.001-0.11 0-0.212 0.033-0.297 0.090l0.002-0.001c-0.072 0.058-0.124 0.139-0.145 0.232l-0 0.003c-0.022 0.105-0.035 0.226-0.035 0.35 0 0.010 0 0.021 0 0.031l-0-0.002v1.865c-0.014 0.18 0.025 0.36 0.112 0.523 0.045 0.056 0.104 0.1 0.172 0.126l0.003 0.001c0.051 0.020 0.111 0.032 0.173 0.032 0.019 0 0.037-0.001 0.055-0.003l-0.002 0c0.011 0.001 0.024 0.001 0.037 0.001 0.102 0 0.196-0.032 0.274-0.087l-0.002 0.001c0.068-0.056 0.115-0.135 0.13-0.224l0-0.002c0.020-0.124 0.030-0.249 0.027-0.374v-0.378h0.875v0.345c0.002 0.027 0.003 0.059 0.003 0.091 0 0.332-0.115 0.637-0.307 0.878l0.002-0.003c-0.201 0.228-0.544 0.342-1.047 0.342s-0.884-0.122-1.099-0.375zM28.924 15.312c-0.221-0.24-0.332-0.588-0.332-1.049v-1.617c0-0.457 0.11-0.802 0.332-1.037s0.59-0.351 1.108-0.35c0.514 0 0.882 0.117 1.103 0.35 0.221 0.235 0.333 0.58 0.333 1.037v1.616c0 0.457-0.112 0.807-0.337 1.048s-0.59 0.361-1.099 0.361-0.885-0.122-1.109-0.359zM30.439 14.924c0.079-0.149 0.115-0.314 0.105-0.478v-1.98c0.001-0.016 0.002-0.035 0.002-0.053 0-0.152-0.039-0.296-0.107-0.42l0.002 0.005c-0.046-0.057-0.107-0.101-0.176-0.128l-0.003-0.001c-0.051-0.020-0.11-0.031-0.171-0.031-0.021 0-0.042 0.001-0.062 0.004l0.002-0c-0.018-0.002-0.038-0.004-0.059-0.004-0.062 0-0.121 0.011-0.176 0.032l0.003-0.001c-0.072 0.027-0.133 0.071-0.179 0.128l-0.001 0.001c-0.080 0.147-0.116 0.308-0.105 0.469v1.989c-0.011 0.165 0.025 0.329 0.105 0.479 0.051 0.050 0.114 0.091 0.184 0.118 0.067 0.027 0.144 0.042 0.225 0.042s0.158-0.016 0.229-0.044l-0.004 0.001c0.071-0.028 0.133-0.068 0.184-0.118v-0.010zM32.52 11.306h0.941l0.708 2.983 0.725-2.983h0.916l0.093 4.305h-0.678l-0.072-2.992-0.699 2.992h-0.544l-0.724-3.003-0.067 3.003h-0.684l0.085-4.305zM36.959 11.306h1.467c0.845 0 1.268 0.407 1.268 1.222 0 0.78-0.445 1.171-1.335 1.17h-0.499v1.913h-0.906l0.005-4.306zM38.212 13.146c0.090 0.010 0.18 0.003 0.267-0.021 0.085-0.023 0.165-0.062 0.231-0.115 0.104-0.146 0.15-0.316 0.131-0.486 0.001-0.014 0.001-0.031 0.001-0.047 0-0.122-0.016-0.24-0.047-0.353l0.002 0.009c-0.014-0.046-0.037-0.085-0.067-0.119l0 0c-0.032-0.035-0.069-0.064-0.112-0.085l-0.002-0.001c-0.105-0.045-0.228-0.070-0.357-0.070-0.017 0-0.033 0-0.050 0.001l0.002-0h-0.351v1.287h0.352zM41 11.306h0.972l0.998 4.305h-0.844l-0.197-0.993h-0.867l-0.203 0.993h-0.857l0.997-4.305zM41.831 14.12l-0.339-1.807-0.339 1.807h0.677zM43.775 11.306h0.634l1.213 2.456v-2.456h0.752v4.305h-0.603l-1.221-2.564v2.564h-0.777l0.002-4.305zM48.134 13.969l-1.009-2.657h0.85l0.616 1.707 0.577-1.707h0.832l-0.996 2.658v1.641h-0.869v-1.642zM26.68 17.494v0.225h-0.739v1.75h-0.31v-1.75h-0.743v-0.225h1.791zM28.996 19.469h-0.239c-0.002 0-0.004 0-0.007 0-0.023 0-0.044-0.007-0.061-0.019l0 0c-0.017-0.011-0.031-0.026-0.039-0.045l-0-0.001-0.214-0.469h-1.025l-0.213 0.469c-0.007 0.021-0.018 0.039-0.033 0.053l-0 0c-0.017 0.012-0.039 0.019-0.062 0.019-0.002 0-0.004-0-0.006-0h-0.239l0.906-1.975h0.314l0.917 1.967zM27.496 18.736h0.855l-0.363-0.804c-0.023-0.050-0.046-0.112-0.064-0.176l-0.003-0.010c-0.013 0.037-0.023 0.074-0.034 0.105l-0.033 0.083-0.358 0.802zM30.557 19.275c0.057 0.003 0.114 0.003 0.171 0 0.049-0.004 0.097-0.012 0.144-0.023 0.044-0.009 0.088-0.021 0.131-0.036 0.040-0.014 0.080-0.031 0.121-0.049v-0.444h-0.362c-0.001 0-0.002 0-0.003 0-0.017 0-0.033-0.006-0.046-0.016l0 0c-0.006-0.004-0.010-0.010-0.014-0.016l-0-0c-0.003-0.005-0.004-0.011-0.004-0.018 0-0.001 0-0.001 0-0.002v0-0.151h0.703v0.757c-0.11 0.068-0.237 0.123-0.372 0.158l-0.010 0.002c-0.075 0.019-0.15 0.033-0.227 0.041-0.088 0.009-0.176 0.012-0.264 0.012-0.003 0-0.007 0-0.012 0-0.159 0-0.312-0.027-0.454-0.077l0.010 0.003c-0.14-0.048-0.26-0.119-0.364-0.208l0.002 0.001c-0.097-0.086-0.176-0.19-0.231-0.307l-0.002-0.006c-0.053-0.117-0.083-0.253-0.083-0.397 0-0.004 0-0.009 0-0.013v0.001c-0-0.004-0-0.008-0-0.012 0-0.145 0.030-0.282 0.084-0.407l-0.003 0.007c0.052-0.117 0.132-0.224 0.233-0.313 0.103-0.089 0.227-0.158 0.363-0.205 0.155-0.051 0.32-0.076 0.485-0.074 0.084 0 0.168 0.005 0.252 0.017 0.074 0.011 0.146 0.027 0.215 0.050 0.064 0.020 0.124 0.047 0.181 0.078 0.055 0.031 0.108 0.065 0.158 0.103l-0.087 0.122c-0.007 0.011-0.017 0.020-0.029 0.026l-0 0c-0.012 0.007-0.026 0.010-0.041 0.011h-0c-0.021-0-0.040-0.006-0.057-0.016l0.001 0c-0.037-0.017-0.066-0.033-0.094-0.050l0.005 0.003c-0.034-0.019-0.074-0.037-0.115-0.052l-0.006-0.002c-0.046-0.017-0.102-0.032-0.16-0.043l-0.007-0.001c-0.065-0.011-0.141-0.017-0.218-0.017-0.004 0-0.008 0-0.013 0h0.001c-0.003-0-0.007-0-0.011-0-0.121 0-0.238 0.020-0.346 0.057l0.008-0.002c-0.101 0.035-0.192 0.088-0.267 0.156-0.072 0.067-0.129 0.149-0.166 0.241l-0.002 0.005c-0.038 0.098-0.061 0.211-0.061 0.329s0.022 0.232 0.063 0.335l-0.002-0.006c0.039 0.093 0.101 0.177 0.181 0.249 0.074 0.068 0.164 0.121 0.264 0.156 0.115 0.034 0.237 0.047 0.359 0.039zM33.444 19.244h0.989v0.225h-1.291v-1.975h0.309l-0.007 1.75zM35.461 19.469h-0.309v-1.975h0.309v1.975zM36.613 17.504c0.019 0.009 0.034 0.021 0.047 0.036l0 0 1.324 1.488c-0.001-0.011-0.001-0.023-0.001-0.035s0-0.025 0.001-0.037l-0 0.002v-1.471h0.27v1.983h-0.156c-0.003 0-0.007 0-0.010 0-0.021 0-0.040-0.004-0.058-0.012l0.001 0c-0.019-0.010-0.035-0.022-0.048-0.037l-0-0-1.322-1.487v1.535h-0.259v-1.975h0.161c0.018 0 0.035 0.003 0.051 0.009zM40.534 17.494v0.217h-1.097v0.652h0.889v0.209h-0.889v0.674h1.097v0.218h-1.416v-1.97h1.416zM8.082 5.299l13.751 3.371v11.812l-13.751-3.369v-11.814zM7.2 4.292v13.395l15.513 3.804v-13.393l-15.513-3.805z"></path>
<path d="M15.515 27.708l-15.515-3.807v-13.393l15.515 3.806v13.394z"></path>
<path d="M7.458 5.147l13.571 3.329-5.772 4.984-13.573-3.33 5.773-4.983zM7.2 4.292l-7.2 6.216 15.515 3.806 7.199-6.217-15.513-3.805zM16.387 26.955l6.326-5.464-6.327-1.551v7.015z"></path>
</symbol>
<symbol id="icon-smartphone" viewBox="0 0 20 32">
<path d="M17 0h-14c-1.654 0-3 1.346-3 3v26c0 1.654 1.346 3 3 3h14c1.654 0 3-1.346 3-3v-26c0-1.654-1.346-3-3-3zM3 2h14c0.552 0 1 0.448 1 1v0 21h-16v-21c0-0.552 0.448-1 1-1v0zM17 30h-14c-0.552 0-1-0.448-1-1v0-3h16v3c0 0.552-0.448 1-1 1v0z"></path>
<path d="M4.708 27.478c0.18 0.163 0.293 0.399 0.293 0.66s-0.113 0.497-0.292 0.659l-0.001 0.001c-0.186 0.17-0.435 0.275-0.708 0.275s-0.522-0.104-0.709-0.275l0.001 0.001c-0.18-0.163-0.293-0.399-0.293-0.66s0.113-0.497 0.292-0.659l0.001-0.001c0.186-0.17 0.435-0.275 0.708-0.275s0.522 0.104 0.709 0.275l-0.001-0.001z"></path>
</symbol>
<symbol id="icon-twitter-1" viewBox="0 0 32 32">
<path d="M32.030 6.079c-1.1 0.493-2.376 0.857-3.713 1.028l-0.068 0.007c1.36-0.817 2.382-2.078 2.873-3.579l0.013-0.046c-1.197 0.722-2.591 1.273-4.076 1.573l-0.084 0.014c-1.2-1.279-2.9-2.076-4.787-2.076-3.622 0-6.558 2.936-6.558 6.558 0 0.001 0 0.003 0 0.004v-0c0 0.52 0.043 1.021 0.152 1.496-5.454-0.266-10.28-2.88-13.522-6.861-0.564 0.949-0.899 2.092-0.902 3.313v0.001c0 2.272 1.171 4.286 2.914 5.451-1.091-0.030-2.107-0.325-2.994-0.823l0.033 0.017v0.072c0.003 3.165 2.236 5.807 5.213 6.44l0.043 0.008c-0.499 0.136-1.071 0.215-1.662 0.215-0.020 0-0.041-0-0.061-0l0.003 0c-0.419 0-0.843-0.024-1.242-0.112 0.85 2.598 3.261 4.509 6.13 4.57-2.215 1.746-5.045 2.8-8.122 2.8-0.004 0-0.008 0-0.013 0h0.001c-0.018 0-0.040 0-0.062 0-0.531 0-1.055-0.034-1.569-0.099l0.061 0.006c2.826 1.846 6.287 2.944 10.004 2.944 0.021 0 0.042-0 0.063-0h-0.003c12.072 0 18.672-10 18.672-18.669 0-0.288-0.010-0.57-0.024-0.848 1.299-0.936 2.39-2.064 3.258-3.355l0.030-0.047z"></path>
</symbol>
</defs>
</svg>
